<svg xmlns="http://www.w3.org/2000/svg" width="168" height="168" fill="none"><rect width="168" height="168" fill="#B8F077" rx="52.735"/><rect width="168" height="168" fill="#015C42" rx="52.735"/><g opacity=".85"><mask id="a" width="126" height="76" x="21" y="52" maskUnits="userSpaceOnUse" style="mask-type:alpha"><path fill="#D9D9D9" d="M21.153 52.464h125.606v75.324H21.153z"/></mask><g mask="url(#a)"><path fill="#B8F077" d="m146.741 59.288-2.032 27.727a25.844 25.844 0 0 1-14.313 21.272L97.28 124.672a30.043 30.043 0 0 1-26.648 0l-33.117-16.385a25.84 25.84 0 0 1-14.312-21.272l-2.032-27.727c-.36-4.9 4.745-8.335 9.15-6.155l37.55 18.579 16.085 7.958 16.046-7.939 37.59-18.598c4.404-2.18 9.508 1.254 9.149 6.155Z"/></g></g><g opacity=".6"><mask id="b" width="94" height="79" x="37" y="49" maskUnits="userSpaceOnUse" style="mask-type:alpha"><path fill="#D9D9D9" d="M37.3 49.619h93.313v78.15H37.3z"/></mask><g mask="url(#b)"><path fill="#B8F077" d="M122.216 101.274 95.76 123.473a18.364 18.364 0 0 1-23.608 0l-26.455-22.199a23.506 23.506 0 0 1-8.075-21.88l4.167-24.944c.736-4.41 5.986-6.346 9.41-3.473l29.195 24.498a23.047 23.047 0 0 1 3.562 3.744 23.081 23.081 0 0 1 3.562-3.744l29.195-24.498c3.425-2.873 8.674-.936 9.41 3.473l4.168 24.943a23.509 23.509 0 0 1-8.075 21.881Z"/></g></g><g opacity=".3"><mask id="c" width="74" height="77" x="47" y="51" maskUnits="userSpaceOnUse" style="mask-type:alpha"><path fill="#D9D9D9" d="M47.882 51.656h72.145v76.159H47.882z"/></mask><g mask="url(#c)"><path fill="#B8F077" d="m115.15 98.011-20.08 24.536c-5.747 7.023-16.485 7.023-22.232 0L52.759 98.011a21.57 21.57 0 0 1-3.552-21.104l8.009-21.779c1.414-3.849 6.478-4.701 9.076-1.527l17.662 21.583 17.662-21.583c2.597-3.174 7.661-2.322 9.076 1.527l8.009 21.78a21.57 21.57 0 0 1-3.551 21.103Z"/></g></g></svg>