<svg width="37" height="48" viewBox="0 0 37 48" fill="none" xmlns="http://www.w3.org/2000/svg">
<g clip-path="url(#clip0_1145_76)">
<path d="M36.071 18.6855C36.071 8.7309 27.9795 0.630371 18.0349 0.630371C8.09032 0.630371 0 8.7309 0 18.6855C0 25.4334 3.71317 31.3278 9.2008 34.4233L2.60501 39.008L8.40496 47.3702L27.5989 34.0261L27.5827 34.0018C32.6759 30.8056 36.071 25.1335 36.071 18.6855ZM18.6457 23.6396C17.9736 23.6396 17.3293 23.5168 16.7347 23.2933C15.615 24.2383 14.4941 25.1867 13.3744 26.1329L9.46454 20.3994C10.7034 19.7115 11.94 19.0201 13.18 18.3299C13.1742 18.2744 13.1742 18.2153 13.1742 18.1597C13.1742 15.1418 15.6312 12.6822 18.6457 12.6822C21.6602 12.6822 24.1148 15.1418 24.1148 18.1597C24.1148 21.1776 21.666 23.6396 18.6457 23.6396Z" fill="#4AB5A5"/>
<path d="M24.1102 18.1597C24.1102 21.1822 21.6614 23.6396 18.6411 23.6396C17.969 23.6396 17.3247 23.5168 16.7301 23.2933C15.6104 24.2383 14.4895 25.1867 13.3698 26.1328L9.45996 20.3993C10.6988 19.7115 11.9354 19.0201 13.1754 18.3299C13.1697 18.2743 13.1697 18.2153 13.1697 18.1597C13.1697 15.1418 15.6266 12.6821 18.6411 12.6821C21.6556 12.6821 24.1102 15.1418 24.1102 18.1597Z" fill="#FCF5E5"/>
</g>
<defs>
<clipPath id="clip0_1145_76">
<rect width="36.071" height="46.7399" fill="white" transform="translate(0 0.630005)"/>
</clipPath>
</defs>
</svg>
