<svg xmlns="http://www.w3.org/2000/svg" xmlns:xlink="http://www.w3.org/1999/xlink" width="1080" zoomAndPan="magnify" viewBox="0 0 810 809.999993" height="1080" preserveAspectRatio="xMidYMid meet" version="1.2"><g id="1c4663fff0"><path style=" stroke:none;fill-rule:nonzero;fill:#0b0b0b;fill-opacity:1;" d="M 504.480469 179.578125 C 581.625 251.914062 656.988281 325.851562 734.3125 398.097656 L 734.492188 401.660156 C 720.238281 422.859375 704.738281 443.621094 688.257812 463.039062 C 633.5625 527.445312 559.445312 594.078125 487.199219 638.351562 C 431.167969 672.738281 307.878906 738.304688 253.539062 675.589844 C 204.542969 618.933594 283.292969 532.792969 336.652344 578.9375 C 368.453125 606.460938 349.835938 654.65625 307.96875 648.242188 C 278.835938 643.699219 281.777344 603.253906 307.878906 604.234375 C 315.628906 604.503906 323.113281 614.835938 326.140625 605.925781 C 337.1875 573.589844 275.007812 576.886719 266.902344 614.390625 C 253.984375 673.984375 340.570312 690.464844 366.496094 642.894531 C 371.304688 634.078125 370.949219 618.933594 377.09375 612.964844 C 380.300781 609.847656 433.128906 588.914062 444.796875 582.589844 C 512.320312 545.886719 567.730469 491.726562 620.554688 437.027344 C 591.960938 415.199219 591.15625 390.347656 613.605469 363.085938 L 503.414062 256.277344 C 498.15625 255.386719 477.667969 286.746094 451.210938 271.421875 C 442.660156 266.523438 435.53125 253.429688 426.445312 256.191406 C 424.128906 256.902344 400.523438 285.675781 393.929688 291.554688 C 363.199219 319.082031 318.925781 351.0625 281.777344 368.878906 C 271.890625 373.597656 235.632812 390.96875 228.0625 386.25 C 225.566406 384.734375 194.121094 341.707031 194.300781 338.769531 C 301.375 297.433594 386.269531 222.605469 453.082031 130.761719 C 468.847656 148.3125 487.109375 163.277344 504.214844 179.402344 Z M 504.480469 179.578125 "/><path style=" stroke:none;fill-rule:nonzero;fill:#0b0b0b;fill-opacity:1;" d="M 370.683594 590.871094 L 245.347656 410.035156 C 294.519531 387.675781 339.683594 363.980469 382.175781 330.484375 C 390.28125 324.070312 425.824219 288.171875 430.371094 287.011719 C 437.230469 285.230469 459.589844 318.015625 503.417969 287.011719 L 581.183594 362.019531 C 569.871094 385.804688 567.820312 418.230469 589.824219 437.117188 C 529.160156 501.703125 456.113281 563.882812 370.773438 590.785156 Z M 370.683594 590.871094 "/><path style=" stroke:none;fill-rule:nonzero;fill:#0b0b0b;fill-opacity:1;" d="M 312.867188 543.660156 C 272.957031 543.925781 243.292969 561.03125 225.300781 596.484375 C 223.515625 600.046875 219.417969 621.25 214.875 618.132812 L 56.3125 368.96875 C 27.894531 313.378906 97.824219 262.78125 143.96875 305.007812 L 312.957031 543.660156 Z M 312.867188 543.660156 "/></g></svg>